<svg width="32" height="32" viewBox="0 0 32 32" fill="none" xmlns="http://www.w3.org/2000/svg">
<g id="Fill/arrow-down">
<path id="Path 2013" d="M8.74699 13L16.111 20.77C16.1809 20.8435 16.2649 20.902 16.3581 20.9419C16.4513 20.9819 16.5516 21.0025 16.653 21.0025C16.7544 21.0025 16.8547 20.9819 16.9479 20.9419C17.041 20.902 17.1251 20.8435 17.195 20.77L24.567 13C24.6429 12.9154 24.6931 12.811 24.712 12.699C24.7308 12.5869 24.7175 12.4718 24.6735 12.3671C24.6295 12.2623 24.5567 12.1722 24.4635 12.1072C24.3702 12.0422 24.2605 12.0051 24.147 12H9.16899C9.05531 12.0047 8.94531 12.0416 8.85182 12.1065C8.75832 12.1713 8.68519 12.2614 8.64096 12.3662C8.59672 12.471 8.5832 12.5863 8.60198 12.6985C8.62075 12.8107 8.67105 12.9153 8.74699 13Z" fill="url(#paint0_linear_16816_22084)"/>
</g>
<defs>
<linearGradient id="paint0_linear_16816_22084" x1="-351.573" y1="11.3036" x2="-351.562" y2="22.5138" gradientUnits="userSpaceOnUse">
<stop stop-color="#4124FB"/>
<stop offset="1" stop-color="#7F25FB"/>
</linearGradient>
</defs>
</svg>
