<svg width="24" height="24" viewBox="0 0 24 24" fill="none" xmlns="http://www.w3.org/2000/svg">
<g clip-path="url(#clip0_17604_22189)">
<path d="M12.4475 11.3121L7.3787 6.23968C7.30478 6.15987 7.21554 6.09581 7.11627 6.0513C7.01701 6.00679 6.9098 5.98273 6.80104 5.98062C6.69228 5.97851 6.58423 5.99837 6.48332 6.039C6.3824 6.07962 6.29067 6.14024 6.21371 6.21712C6.13675 6.294 6.0761 6.38556 6.03537 6.48643C5.99463 6.5873 5.9747 6.69539 5.9767 6.80416C5.9787 6.91292 6.0026 7.02016 6.04701 7.11946C6.09142 7.21877 6.15536 7.30811 6.2351 7.38211L10.7328 11.8821L6.23634 16.3761C6.08953 16.5287 6.00841 16.7329 6.01046 16.9447C6.01252 17.1565 6.09757 17.359 6.24733 17.5087C6.39708 17.6585 6.59959 17.7435 6.81137 17.7456C7.02314 17.7476 7.22731 17.6665 7.37995 17.5197L12.4487 12.4533C12.5995 12.3016 12.6839 12.0963 12.6837 11.8825C12.6835 11.6686 12.5985 11.4636 12.4475 11.3121Z" fill="white"/>
<path d="M17.2483 11.3121L12.1795 6.23968C12.1056 6.15987 12.0163 6.09581 11.9171 6.0513C11.8178 6.00679 11.7106 5.98273 11.6018 5.98062C11.4931 5.97851 11.385 5.99837 11.2841 6.039C11.1832 6.07962 11.0915 6.14024 11.0145 6.21712C10.9375 6.294 10.8769 6.38556 10.8361 6.48643C10.7954 6.5873 10.7755 6.69539 10.7775 6.80416C10.7795 6.91292 10.8034 7.02016 10.8478 7.11946C10.8922 7.21877 10.9561 7.30811 11.0359 7.38211L15.5335 11.8821L11.0371 16.3761C10.8903 16.5287 10.8092 16.7329 10.8112 16.9447C10.8133 17.1565 10.8984 17.359 11.0481 17.5087C11.1979 17.6585 11.4004 17.7435 11.6121 17.7456C11.8239 17.7476 12.0281 17.6665 12.1807 17.5197L17.2495 12.4533C17.4002 12.3016 17.4847 12.0963 17.4845 11.8825C17.4843 11.6686 17.3993 11.4636 17.2483 11.3121Z" fill="white"/>
</g>
<defs>
<clipPath id="clip0_17604_22189">
<rect width="24" height="24" fill="white"/>
</clipPath>
</defs>
</svg>
