<svg width="26" height="26" viewBox="0 0 26 26" fill="none" xmlns="http://www.w3.org/2000/svg">
<g clip-path="url(#clip0_17617_27448)">
<path d="M22.4545 0H3.54545C1.58735 0 0 1.58735 0 3.54545V22.4545C0 24.4126 1.58735 26 3.54545 26H22.4545C24.4126 26 26 24.4126 26 22.4545V3.54545C26 1.58735 24.4126 0 22.4545 0Z" fill="url(#paint0_linear_17617_27448)"/>
<path d="M21.0938 8.08239C20.7081 8.65855 20.2386 9.17389 19.7007 9.61137C19.631 9.66686 19.5747 9.73741 19.5361 9.81774C19.4974 9.89807 19.4775 9.9861 19.4777 10.0752V10.1299C19.4715 11.2909 19.2584 12.4415 18.8484 13.5276C18.4259 14.6661 17.7986 15.7175 16.9973 16.6299C15.9254 17.8518 14.5448 18.7631 12.9998 19.2683C11.9818 19.5987 10.9176 19.7643 9.84734 19.7588C8.15239 19.757 6.48798 19.3075 5.02256 18.4558C4.97009 18.426 4.92883 18.3798 4.90509 18.3243C4.88134 18.2688 4.87643 18.2071 4.89109 18.1485C4.90594 18.0906 4.93977 18.0394 4.98717 18.003C5.03456 17.9666 5.09279 17.9471 5.15256 17.9476H5.55734C6.84566 17.9474 8.10451 17.5621 9.17222 16.8411C8.53576 16.7371 7.94021 16.4599 7.45085 16.0398C6.96149 15.6198 6.5972 15.0731 6.3979 14.4598C6.38813 14.4295 6.38638 14.3973 6.39285 14.3662C6.39931 14.335 6.41376 14.3061 6.43477 14.2823C6.45578 14.2585 6.48263 14.2405 6.51269 14.2302C6.54275 14.2198 6.57497 14.2175 6.6062 14.2234C6.801 14.2605 6.99882 14.2793 7.19711 14.2796H7.27097C6.65407 13.9961 6.13252 13.54 5.76941 12.9663C5.4063 12.3927 5.21719 11.7261 5.22495 11.0473C5.22537 11.0154 5.23402 10.9842 5.25006 10.9567C5.2661 10.9292 5.28899 10.9063 5.31649 10.8902C5.344 10.8742 5.37519 10.8655 5.40704 10.8651C5.43889 10.8646 5.47031 10.8724 5.49825 10.8877C5.74854 11.0275 6.01701 11.1319 6.29597 11.198C5.74355 10.6518 5.388 9.93778 5.28507 9.16781C5.18214 8.39785 5.33765 7.61549 5.72722 6.94342C5.74217 6.91865 5.76276 6.89778 5.78733 6.8825C5.81189 6.86723 5.83972 6.85799 5.86855 6.85554C5.89737 6.85309 5.92636 6.8575 5.95315 6.86841C5.97994 6.87932 6.00377 6.89642 6.02268 6.9183C6.79638 7.87473 7.75434 8.66598 8.83971 9.24508C9.92507 9.82418 11.1157 10.1793 12.341 10.2894H12.3543C12.3724 10.2888 12.3903 10.2846 12.4068 10.277C12.4233 10.2694 12.4381 10.2586 12.4503 10.2451C12.4621 10.2317 12.4709 10.2159 12.4762 10.1989C12.4816 10.1819 12.4833 10.1639 12.4813 10.1461C12.4356 9.71713 12.4636 9.28345 12.564 8.86387C12.6521 8.49655 12.802 8.14687 13.0072 7.82978C13.438 7.15323 14.0942 6.65086 14.8597 6.4116C15.2188 6.29902 15.5928 6.24124 15.9692 6.24024C16.8226 6.23939 17.6469 6.55041 18.287 7.11478C18.3685 7.18727 18.4734 7.22814 18.5825 7.23001C18.6184 7.22941 18.6541 7.22445 18.6888 7.21524C19.2906 7.06299 19.8673 6.82466 20.401 6.50762C20.4331 6.48906 20.4701 6.48061 20.5071 6.48337C20.5441 6.48613 20.5794 6.49997 20.6084 6.52309C20.6374 6.54621 20.6588 6.57754 20.6698 6.61299C20.6807 6.64844 20.6807 6.68636 20.6698 6.72183C20.4908 7.28095 20.1737 7.78595 19.748 8.19024C20.132 8.09852 20.5068 7.97194 20.8678 7.81205C20.9042 7.79584 20.9449 7.79193 20.9837 7.80092C21.0225 7.80991 21.0573 7.83132 21.0829 7.86188C21.1084 7.89245 21.1233 7.93051 21.1253 7.97031C21.1273 8.0101 21.1162 8.04945 21.0938 8.08239V8.08239Z" fill="white"/>
</g>
<defs>
<linearGradient id="paint0_linear_17617_27448" x1="-580.677" y1="-2.01112" x2="-580.624" y2="30.3648" gradientUnits="userSpaceOnUse">
<stop stop-color="#4124FB"/>
<stop offset="1" stop-color="#7F25FB"/>
</linearGradient>
<clipPath id="clip0_17617_27448">
<rect width="26" height="26" fill="white"/>
</clipPath>
</defs>
</svg>
